<svg width="16" height="11" viewBox="0 0 16 11" fill="none" xmlns="http://www.w3.org/2000/svg">
<path d="M2.24414 8.82422H3.29883V0.369141H2.25L0 1.98633V3.09961L2.15039 1.54102H2.24414V8.82422ZM5.7832 10.623L8.83008 0H7.97461L4.92773 10.623H5.7832ZM11.5957 4.92773H12.6445C13.834 4.92773 14.5664 5.53711 14.5664 6.51562C14.5664 7.46484 13.7754 8.10352 12.6621 8.10352C11.5723 8.10352 10.8105 7.53516 10.7168 6.64453H9.69727C9.77344 8.08008 10.957 9.02344 12.6738 9.02344C14.3555 9.02344 15.6504 7.96289 15.6504 6.54492C15.6504 5.36719 14.9238 4.62305 13.8281 4.44727V4.35352C14.6953 4.10156 15.3281 3.42773 15.334 2.4082C15.3398 1.22461 14.3789 0.169922 12.709 0.169922C10.998 0.169922 9.94922 1.18359 9.84375 2.56055H10.8691C10.957 1.61133 11.6191 1.08984 12.6387 1.08984C13.6582 1.08984 14.2617 1.73438 14.2617 2.52539C14.2617 3.4043 13.5703 4.02539 12.5977 4.02539H11.5957V4.92773Z" fill="#F9F9F9"/>
</svg>
