<svg width="182" height="49" viewBox="0 0 182 49" fill="none" xmlns="http://www.w3.org/2000/svg">
<path d="M58.578 1.0616C58.687 0.081771 59.2438 -0.152493 60.4716 0.086995C61.3605 0.260305 62.1109 0.420683 62.9491 0.75594C63.2937 0.893166 63.8947 1.11949 63.8554 1.55867C63.8086 2.08591 63.6083 7.07723 63.6083 7.07723C63.6413 7.07954 65.8531 7.23403 66.6513 7.25106C67.608 7.27028 70.0199 7.39166 70.3612 7.53035C71.1139 7.8372 70.4111 10.3131 69.6815 10.3487C68.2269 10.4191 67.2375 10.395 66.1454 10.4063C65.723 10.411 63.5483 10.4451 63.5311 10.4454C63.4727 11.1701 63.1268 18.6897 63.1268 23.9708C63.1269 27.9351 64.0932 29.795 65.1073 29.795C66.8404 29.7947 68.9586 26.5978 69.4384 23.8233C69.4301 22.8465 69.4947 21.8008 69.6395 20.6847C70.1408 16.8225 71.1144 15.0777 72.3173 13.504C74.162 11.0903 76.5766 10.5012 78.9032 11.1544C79.767 11.3963 81.0647 12.2322 81.872 13.4317V12.5665C81.872 12.1911 82.2903 11.6872 82.8847 11.6456C83.3351 11.6139 83.9219 11.6689 84.6015 11.8175C85.2508 11.9599 86.6463 12.3444 86.6581 13.1075C86.6615 13.3561 86.6013 14.4536 86.5702 15.8819C86.5167 18.3615 86.4081 19.853 86.4081 23.2813C86.4081 29.1591 87.2836 30.4454 88.8212 30.4454C90.0236 30.4449 91.087 28.6371 91.4569 26.9083C91.114 25.1812 91.0677 23.1311 91.3192 20.7188C91.5893 18.1309 92.542 15.4293 93.997 13.504C95.8281 11.0811 98.2563 10.5014 100.583 11.1544C101.447 11.3963 102.745 12.2321 103.553 13.4317C103.553 13.4317 103.553 12.7572 103.55 12.6466C103.534 12.0644 104.126 11.5725 105.107 11.6446C105.885 11.7016 106.634 11.8646 107.268 12.1007C107.986 12.3676 108.33 12.5789 108.339 13.1368C108.342 13.3857 108.282 14.4536 108.251 15.8819C108.219 17.3406 108.147 21.3872 108.164 26.5284C108.165 26.8894 108.167 27.2525 108.17 27.6153C108.926 26.6406 109.512 25.7237 110.277 24.4864C111.707 22.1769 113.092 18.9828 113.657 16.5372C113.657 16.5372 111.935 15.5951 112.214 13.5987C112.39 12.3407 112.853 11.6412 113.534 11.0479C114.675 10.0542 118.25 9.80211 117.865 12.9132C117.792 13.5062 117.703 13.8429 117.703 13.8429C119.181 13.6358 120.796 13.366 121.926 13.1153C123.512 12.7637 124.616 13.049 125.134 13.6085C125.698 14.2186 125.922 14.8555 125.645 16.0714C124.996 18.9235 124.401 20.8952 124.312 23.7042C124.178 27.9756 125.338 30.4454 126.938 30.4454C128.04 30.4452 129.047 29.5367 129.589 27.3204C129.14 25.3561 129.058 23.0337 129.31 20.7432C129.656 17.6102 130.533 15.4294 131.988 13.504C133.819 11.081 136.247 10.5009 138.574 11.1544C139.438 11.3963 140.737 12.2321 141.544 13.4317C141.544 13.4317 141.54 12.8868 141.54 12.5997C141.54 12.0649 141.984 11.6764 142.61 11.6427C143.053 11.6188 143.62 11.6744 144.272 11.8175C144.922 11.9597 146.318 12.3442 146.329 13.1075C146.332 13.3564 146.272 14.4535 146.241 15.8819C146.188 18.3618 146.079 19.853 146.079 23.2813C146.079 29.1591 146.805 30.4454 148.343 30.4454C149.878 30.4448 151.29 27.3693 151.725 25.1036C151.725 24.8553 151.725 24.6216 151.725 24.4073C151.725 19.4813 151.848 12.4385 151.849 12.3468C151.849 11.7404 152.042 11.3243 152.829 11.3243C153.467 11.3245 154.969 11.6738 155.732 11.8829C155.902 11.9297 156.464 12.1883 156.461 12.963C156.453 15.0172 156.443 20.4337 156.443 20.4337C156.443 20.4337 156.929 19.0755 157.627 17.0684C158.486 14.599 159.313 12.5155 160.026 11.7413C160.85 10.7948 163.138 11.5902 163.891 12.0401C165.053 12.7334 165.276 13.5804 165.283 14.5753C165.32 19.674 165.617 22.1012 165.75 23.4366C165.77 23.6383 165.882 23.6206 165.892 23.5343C166.101 21.8671 166.987 17.7621 169.252 12.5919C170.054 10.7619 171.664 11.3219 172.771 11.7022C175.346 12.5866 175.611 13.485 175.559 14.3927C175.31 18.8097 175.278 23.2499 175.474 25.6622C175.722 28.7299 176.689 30.2628 177.765 30.2628C178.727 30.2626 179.474 29.5636 180.184 26.4688C180.389 25.5793 180.636 25.0501 181.179 25.0499C181.877 25.0499 182.11 25.8846 181.953 26.9649C181.3 31.4541 179.36 33.16 176.988 33.1602C175.877 33.1602 172.688 32.6488 171.586 28.0753C170.773 24.699 170.973 18.5251 171.062 16.6378C171.065 16.5861 170.992 16.3239 170.836 16.6573C170.412 17.5629 169.238 20.0389 168.534 22.7794C167.456 26.9756 167.363 29.8962 167.416 30.3692C167.525 31.3388 166.305 31.4913 165.722 31.4913C164.805 31.4913 163.679 31.4187 162.767 29.8956C162.448 29.3628 162.032 27.679 161.721 24.8311C161.297 20.9594 161.245 18.0776 161.223 17.0958C161.211 16.6107 160.906 16.6863 160.635 17.1446C160.151 17.9627 159.131 19.6152 158.037 23.8741C157.385 26.4124 157.453 29.8276 157.343 31.8604C157.301 32.6346 156.992 32.9352 156.597 33.0108C156.026 33.1199 154.484 33.37 152.973 32.8399C152.631 32.7201 152.162 32.4722 152.081 32.2745C151.949 31.9514 151.865 30.9264 151.811 29.6729C150.539 32.5198 148.971 33.1602 147.318 33.1602C145.732 33.1601 142.962 32.1199 142.391 28.752C142.384 28.7671 142.044 29.4317 141.451 30.1993C138.793 33.6407 133.556 34.5198 130.848 30.461C130.716 30.2634 130.595 30.0494 130.479 29.8282C129.52 31.8127 127.73 33.1494 125.858 33.1495C124.26 33.1495 121.562 32.1246 120.366 28.9395C118.618 24.2866 120.534 17.3016 120.648 16.8712C120.743 16.5149 120.596 16.4156 120.082 16.4473C118.49 16.5459 116.997 16.5345 116.971 16.5343C116.083 19.1802 114.351 22.5807 112.734 25.1124C111.251 27.4353 109.64 29.4209 108.21 30.9913C108.241 33.0366 108.281 34.9446 108.306 36.4454C108.366 40.1933 107.536 43.9889 106.267 45.752C104.826 47.755 102.477 49.1861 99.7401 48.9805C97.1576 48.7869 93.7493 47.3086 94.039 43.3321C94.2667 40.2136 97.361 37.5355 101.434 34.005C102.357 33.2053 103.858 31.9034 103.865 31.8975L103.787 29.7598C103.693 29.8914 103.585 30.0379 103.461 30.1993C100.821 33.646 95.5652 34.5198 92.8563 30.461C92.6768 30.1921 92.5128 29.9076 92.3622 29.6104C91.0762 32.3484 89.2409 33.1436 87.4638 33.1436C85.877 33.1435 83.1057 32.0062 82.7206 28.752C82.717 28.7627 82.5848 29.1494 81.7802 30.1993C79.1405 33.6459 73.8855 34.5198 71.1767 30.461C70.6111 29.6136 70.1737 28.6112 69.8778 27.4591C68.8474 30.2853 66.4908 33.1581 64.1405 33.1583C60.625 33.1583 58.6013 30.2274 58.1259 25.047C55.4699 31.0452 51.6543 33.3704 46.8915 33.2198C45.6693 33.1811 43.7531 32.8412 42.8612 32.4659C41.8255 32.0297 40.8262 31.5304 41.1005 30.587C41.3825 29.6176 41.8768 28.8344 42.7401 28.2188C43.0726 27.9822 43.6271 28.0496 43.9901 28.2755C44.666 28.6962 44.9527 28.9851 45.6249 29.3585C47.9312 30.638 49.2271 29.3215 49.5712 28.044C50.0211 26.3731 49.3425 24.6115 47.2772 22.7579C46.3886 21.9603 45.4993 21.2134 44.7069 20.5196C43.5698 22.3322 41.9874 24.8474 40.3573 27.4122C37.7427 31.5277 35.3035 33.1541 33.5731 33.1544C31.3114 33.1544 29.7279 31.629 30.0575 23.4014C30.1805 20.3273 30.3639 16.708 30.4159 15.2598C30.4274 14.9328 30.1843 14.9447 29.9716 15.1446C28.7544 16.2892 26.1659 19.5126 24.1806 26.1182C22.9054 30.3609 22.9002 31.499 22.7489 32.5509C22.6221 33.428 20.1933 33.1333 19.7499 33.047C19.2738 32.9539 18.9852 32.7281 18.7352 32.4327C18.4852 32.1367 18.2829 31.639 18.1581 31.0274C18.033 30.4166 17.9999 29.0206 17.9999 27.8233L18.1063 12.0665C18.1063 11.5548 18.398 11.2981 18.9813 11.2979C20.2062 11.2979 21.5842 11.8396 22.1005 12.1046C22.4047 12.2606 22.5388 12.4887 22.539 12.7247L22.4725 22.796C22.482 22.7721 23.2336 20.8665 23.6171 19.8175C26.6787 11.4425 29.9188 11.2979 31.0419 11.2979C31.7922 11.2979 33.0882 11.9925 33.6952 12.3458C34.694 12.9273 35.29 13.5696 35.245 14.6964C35.1085 18.1046 34.9374 21.3975 34.9374 23.587C34.9374 26.1268 34.9249 28.8389 35.8671 28.8389C37.0457 28.8385 38.6053 26.1669 40.6698 22.7891C41.4136 21.5725 42.2923 20.0041 42.9315 18.8389C42.8451 18.7447 42.7616 18.6503 42.6845 18.5587C41.6272 17.3047 41.3391 16.0978 41.8788 14.4708C42.5755 12.371 44.911 10.4047 47.7431 11.0206C49.4565 11.3933 49.4265 13.0815 48.7284 14.5577C47.7518 16.6229 46.6517 17.6591 46.6317 17.6778C48.5504 19.0203 50.2649 20.2456 51.1337 20.8927C53.4917 22.6488 54.8009 24.7237 54.16 27.4864C54.16 27.4864 57.1439 25.2304 57.9911 21.0548C57.9896 20.8201 57.9891 20.5782 57.9891 20.3272C57.9892 17.9671 58.0575 10.3243 58.0575 10.3243C56.5181 10.2807 54.1956 10.2384 52.8632 10.1895C51.7054 10.1473 52.6095 6.74129 53.4472 6.74129C54.3489 6.74131 57.4277 6.90731 58.329 6.90731C58.3297 6.86891 58.4148 2.54277 58.578 1.0616ZM103.998 35.0001C100.754 38.3232 98.5386 41.0429 98.0702 43.7061C97.5409 46.7159 100.097 47.8332 101.999 46.3438C103.34 45.2934 103.965 41.6772 103.993 37.5528C104.005 35.7579 103.998 35.0001 103.998 35.0001ZM9.16298 0.16512C10.687 -0.435087 13.9171 0.71318 13.9403 1.8077C14.0329 6.27014 13.9914 13.6933 13.9872 16.2286C13.9824 18.9926 13.9873 23.8387 13.8749 26.8927C13.7817 29.426 13.2635 31.7588 11.7831 33.7013C10.5484 35.3209 8.41547 36.3259 7.91591 35.9034C7.46928 35.5256 8.05889 34.5449 8.42567 33.0938C8.78797 31.6618 8.99012 30.2123 8.99012 25.6231C8.99013 22.2307 9.09657 5.98026 9.09657 4.17C9.09658 3.15791 9.12015 2.61088 8.62098 3.00399C5.93351 5.12045 3.79802 9.94394 4.287 14.2608C4.6655 17.6032 6.50395 17.9584 5.86024 19.0079C5.31252 19.8994 -1.35434 17.1746 0.247938 10.7335C1.51328 5.64845 5.51904 1.60001 9.16298 0.16512ZM79.1532 15.0128C77.1432 14.8119 75.8559 16.9345 75.3417 19.9278C74.9952 21.945 74.711 25.6792 75.5438 28.418C76.6993 32.216 79.3201 31.3834 80.6444 28.755C81.3764 27.3027 81.8324 25.3029 81.9589 22.9112C82.2224 17.9346 81.2181 15.2192 79.1532 15.0128ZM101.142 15.0001C99.0066 15.0003 97.8177 17.556 97.327 20.3106C96.9489 22.4339 96.7659 25.8037 97.5302 28.4073C98.6479 32.2173 101.345 31.39 102.635 28.7432C103.26 27.4613 103.833 25.1923 103.951 22.9337C104.244 17.3293 103.219 15.0001 101.142 15.0001ZM138.142 15.0128C136.034 14.8122 134.761 17.0372 134.305 19.9835C133.857 22.8759 133.885 26.3386 134.509 28.4112C135.652 32.213 138.345 31.392 139.643 28.7472C140.314 27.3808 140.854 25.4431 140.967 22.9649C141.196 17.9326 140.222 15.2111 138.142 15.0128Z" fill="#262626"/>
</svg>
