<svg width="21" height="18" viewBox="0 0 21 18" fill="none" xmlns="http://www.w3.org/2000/svg">
<path d="M19.75 16C20.1642 16 20.5 16.3358 20.5 16.75C20.5 17.1297 20.2176 17.4435 19.8516 17.4932L19.75 17.5H0.75C0.335786 17.5 0 17.1642 0 16.75C0 16.3703 0.282362 16.0565 0.648438 16.0068L0.75 16H19.75ZM19.75 8C20.1642 8 20.5 8.33579 20.5 8.75C20.5 9.1297 20.2176 9.4435 19.8516 9.49316L19.75 9.5H0.75C0.335786 9.5 0 9.16421 0 8.75C0 8.3703 0.282362 8.0565 0.648438 8.00684L0.75 8H19.75ZM19.75 0C20.1642 0 20.5 0.335786 20.5 0.75C20.5 1.1297 20.2176 1.4435 19.8516 1.49316L19.75 1.5H0.75C0.335786 1.5 0 1.16421 0 0.75C0 0.370304 0.282362 0.0564984 0.648438 0.00683594L0.75 0H19.75Z" fill="#262626"/>
</svg>
