<svg width="24" height="21" viewBox="0 0 24 21" fill="none" xmlns="http://www.w3.org/2000/svg">
<path d="M1.74122 2.06917C4.37725 -0.566871 8.58174 -0.746559 11.2178 1.88948L11.8721 2.65511L12.6045 1.88948C15.1792 -0.685119 19.171 -0.565401 21.8184 1.88948L22.0049 2.06917C24.5796 4.64383 23.949 9.78986 21.4941 12.4373L21.1709 12.7791L20.8115 13.1453C19.4263 14.5365 17.3027 16.4411 14.4414 18.8592L12.8076 20.2293C12.2438 20.6985 11.4235 20.691 10.8682 20.2117L8.85157 18.4608L7.05567 16.8817C4.92117 14.9889 3.31889 13.5072 2.24903 12.4373C-0.386918 9.80136 -0.894561 4.70527 1.74122 2.06917Z" fill="#FF0000"/>
</svg>
