<svg width="24" height="24" viewBox="0 0 24 24" fill="none" xmlns="http://www.w3.org/2000/svg">
<path d="M9.75 0C15.1348 0 19.5 4.36522 19.5 9.75C19.5 12.1725 18.6166 14.3886 17.1543 16.0938L23.1445 22.084C23.4371 22.3769 23.4373 22.8517 23.1445 23.1445C22.8783 23.4108 22.4616 23.4346 22.168 23.2168L22.084 23.1445L16.0938 17.1543C14.3886 18.6166 12.1725 19.5 9.75 19.5C4.36522 19.5 0 15.1348 0 9.75C0 4.36522 4.36522 0 9.75 0ZM9.75 1.5C5.19365 1.5 1.5 5.19365 1.5 9.75C1.5 14.3063 5.19365 18 9.75 18C14.3063 18 18 14.3063 18 9.75C18 5.19365 14.3063 1.5 9.75 1.5Z" fill="#262626"/>
</svg>
