<svg width="21" height="15" viewBox="0 0 21 15" fill="none" xmlns="http://www.w3.org/2000/svg">
<mask id="path-1-outside-1_2_1101" maskUnits="userSpaceOnUse" x="-0.800049" y="-0.800049" width="22" height="16" fill="black">
<rect fill="white" x="-0.800049" y="-0.800049" width="22" height="16"/>
<path fill-rule="evenodd" clip-rule="evenodd" d="M12.7 0.199951C13.5284 0.199951 14.2 0.871524 14.2 1.69995V12.7C14.2 13.5284 13.5284 14.2 12.7 14.2H1.69995C0.871524 14.2 0.199951 13.5284 0.199951 12.7V1.69995C0.199951 0.871524 0.871524 0.199951 1.69995 0.199951H12.7ZM20.0861 2.38794C20.1609 2.53096 20.2 2.68994 20.2 2.85133V11.3073C20.2 11.8596 19.7522 12.3073 19.2 12.3073C19.0388 12.3073 18.88 12.2683 18.7371 12.1937L16.2 10.869V3.29159L18.7366 1.96517C19.226 1.70925 19.8302 1.89853 20.0861 2.38794ZM7.19995 2.19995C4.43853 2.19995 2.19995 4.43853 2.19995 7.19995C2.19995 9.96138 4.43853 12.2 7.19995 12.2C9.96138 12.2 12.2 9.96138 12.2 7.19995C12.2 4.43853 9.96138 2.19995 7.19995 2.19995ZM7.19995 4.19995C8.85681 4.19995 10.2 5.5431 10.2 7.19995C10.2 8.85681 8.85681 10.2 7.19995 10.2C5.5431 10.2 4.19995 8.85681 4.19995 7.19995C4.19995 5.5431 5.5431 4.19995 7.19995 4.19995Z"/>
</mask>
<path fill-rule="evenodd" clip-rule="evenodd" d="M12.7 0.199951C13.5284 0.199951 14.2 0.871524 14.2 1.69995V12.7C14.2 13.5284 13.5284 14.2 12.7 14.2H1.69995C0.871524 14.2 0.199951 13.5284 0.199951 12.7V1.69995C0.199951 0.871524 0.871524 0.199951 1.69995 0.199951H12.7ZM20.0861 2.38794C20.1609 2.53096 20.2 2.68994 20.2 2.85133V11.3073C20.2 11.8596 19.7522 12.3073 19.2 12.3073C19.0388 12.3073 18.88 12.2683 18.7371 12.1937L16.2 10.869V3.29159L18.7366 1.96517C19.226 1.70925 19.8302 1.89853 20.0861 2.38794ZM7.19995 2.19995C4.43853 2.19995 2.19995 4.43853 2.19995 7.19995C2.19995 9.96138 4.43853 12.2 7.19995 12.2C9.96138 12.2 12.2 9.96138 12.2 7.19995C12.2 4.43853 9.96138 2.19995 7.19995 2.19995ZM7.19995 4.19995C8.85681 4.19995 10.2 5.5431 10.2 7.19995C10.2 8.85681 8.85681 10.2 7.19995 10.2C5.5431 10.2 4.19995 8.85681 4.19995 7.19995C4.19995 5.5431 5.5431 4.19995 7.19995 4.19995Z" fill="#FEFFFE"/>
<path d="M20.0861 2.38794L20.2633 2.29527L20.0861 2.38794ZM18.7371 12.1937L18.6446 12.371L18.7371 12.1937ZM16.2 10.869H16V10.9902L16.1074 11.0463L16.2 10.869ZM16.2 3.29159L16.1073 3.11436L16 3.17048V3.29159H16.2ZM18.7366 1.96517L18.8292 2.1424L18.7366 1.96517ZM12.7 0.199951V0.399951C13.4179 0.399951 14 0.981981 14 1.69995H14.2H14.4C14.4 0.761067 13.6388 -4.88311e-05 12.7 -4.88311e-05V0.199951ZM14.2 1.69995H14V12.7H14.2H14.4V1.69995H14.2ZM14.2 12.7H14C14 13.4179 13.4179 14 12.7 14V14.2V14.4C13.6388 14.4 14.4 13.6388 14.4 12.7H14.2ZM12.7 14.2V14H1.69995V14.2V14.4H12.7V14.2ZM1.69995 14.2V14C0.981981 14 0.399951 13.4179 0.399951 12.7H0.199951H-4.88311e-05C-4.88311e-05 13.6388 0.761067 14.4 1.69995 14.4V14.2ZM0.199951 12.7H0.399951V1.69995H0.199951H-4.88311e-05V12.7H0.199951ZM0.199951 1.69995H0.399951C0.399951 0.981981 0.981981 0.399951 1.69995 0.399951V0.199951V-4.88311e-05C0.761067 -4.88311e-05 -4.88311e-05 0.761067 -4.88311e-05 1.69995H0.199951ZM1.69995 0.199951V0.399951H12.7V0.199951V-4.88311e-05H1.69995V0.199951ZM20.0861 2.38794L19.9089 2.48062C19.9687 2.59503 20 2.72222 20 2.85133H20.2H20.4C20.4 2.65767 20.3531 2.46688 20.2633 2.29527L20.0861 2.38794ZM20.2 2.85133H20V11.3073H20.2H20.4V2.85133H20.2ZM20.2 11.3073H20C20 11.7491 19.6418 12.1073 19.2 12.1073V12.3073V12.5073C19.8627 12.5073 20.4 11.97 20.4 11.3073H20.2ZM19.2 12.3073V12.1073C19.071 12.1073 18.944 12.0761 18.8297 12.0164L18.7371 12.1937L18.6446 12.371C18.816 12.4605 19.0065 12.5073 19.2 12.5073V12.3073ZM18.7371 12.1937L18.8297 12.0164L16.2925 10.6917L16.2 10.869L16.1074 11.0463L18.6446 12.371L18.7371 12.1937ZM16.2 10.869H16.4V3.29159H16.2H16V10.869H16.2ZM16.2 3.29159L16.2926 3.46882L18.8292 2.1424L18.7366 1.96517L18.6439 1.78793L16.1073 3.11436L16.2 3.29159ZM18.7366 1.96517L18.8292 2.1424C19.2208 1.93766 19.7041 2.08909 19.9089 2.48062L20.0861 2.38794L20.2633 2.29527C19.9562 1.70797 19.2312 1.48083 18.6439 1.78793L18.7366 1.96517ZM7.19995 2.19995V1.99995C4.32807 1.99995 1.99995 4.32807 1.99995 7.19995H2.19995H2.39995C2.39995 4.54898 4.54898 2.39995 7.19995 2.39995V2.19995ZM2.19995 7.19995H1.99995C1.99995 10.0718 4.32807 12.4 7.19995 12.4V12.2V12C4.54898 12 2.39995 9.85092 2.39995 7.19995H2.19995ZM7.19995 12.2V12.4C10.0718 12.4 12.4 10.0718 12.4 7.19995H12.2H12C12 9.85092 9.85092 12 7.19995 12V12.2ZM12.2 7.19995H12.4C12.4 4.32807 10.0718 1.99995 7.19995 1.99995V2.19995V2.39995C9.85092 2.39995 12 4.54898 12 7.19995H12.2ZM7.19995 4.19995V4.39995C8.74635 4.39995 9.99995 5.65355 9.99995 7.19995H10.2H10.4C10.4 5.43264 8.96726 3.99995 7.19995 3.99995V4.19995ZM10.2 7.19995H9.99995C9.99995 8.74635 8.74635 9.99995 7.19995 9.99995V10.2V10.4C8.96726 10.4 10.4 8.96726 10.4 7.19995H10.2ZM7.19995 10.2V9.99995C5.65355 9.99995 4.39995 8.74635 4.39995 7.19995H4.19995H3.99995C3.99995 8.96726 5.43264 10.4 7.19995 10.4V10.2ZM4.19995 7.19995H4.39995C4.39995 5.65355 5.65355 4.39995 7.19995 4.39995V4.19995V3.99995C5.43264 3.99995 3.99995 5.43264 3.99995 7.19995H4.19995Z" fill="black" fill-opacity="0.2" mask="url(#path-1-outside-1_2_1101)"/>
</svg>
